<?xml version="1.0"?>
<svg version="1.1" xmlns="http://www.w3.org/2000/svg" xmlns:xlink="http://www.w3.org/1999/xlink" width="406" height="153">
    <desc iVinci="yes" version="4.6" gridStep="20" showGrid="no" snapToGrid="no" codePlatform="0"/>
    <g id="Layer1" name="Layer 1" opacity="1">
        <g id="Shape1">
            <desc shapeID="1" type="0" basicInfo-basicType="0" basicInfo-roundedRectRadius="12" basicInfo-polygonSides="6" basicInfo-starPoints="5" bounding="rect(-16.4626,-14.9266,32.9252,29.8532)" text="" font-familyName="" font-pixelSize="20" font-bold="0" font-underline="0" font-alignment="1" strokeStyle="0" markerStart="0" markerEnd="0" shadowEnabled="0" shadowOffsetX="0" shadowOffsetY="2" shadowBlur="4" shadowOpacity="160" blurEnabled="0" blurRadius="4" transform="matrix(1.47139,0,0,1.47139,75.9868,56.7911)" pers-center="0,0" pers-size="0,0" pers-start="0,0" pers-end="0,0" locked="0" mesh="" flag=""/>
            <path id="shapePath1" d="M97.0384,71.7896 C88.8575,48.4975 70.3622,53.8828 61.5338,46.2169 L61.166,45.849 C61.9891,46.3295 62.8446,46.7523 63.7262,47.1144 C72.3633,51.4109 88.9311,46.4376 97.5681,66.625 C97.833,67.2528 98.0929,67.9051 98.348,68.582 C99.0542,70.4506 101.511,65.3302 99.3191,57.885 C91.815,32.4152 67.9932,44.3776 58.1644,39.522 C55.8206,38.2665 53.6658,36.6863 51.7638,34.8283 C51.7638,34.8283 64.3295,79.8234 92.5213,78.7345 C96.0379,78.6021 97.8183,74.0555 97.0237,71.7896 " style="stroke:none;fill-rule:evenodd;fill:#b6e11a;fill-opacity:1;"/>
        </g>
        <g id="Shape2">
            <desc shapeID="2" type="0" basicInfo-basicType="0" basicInfo-roundedRectRadius="12" basicInfo-polygonSides="6" basicInfo-starPoints="5" bounding="rect(-24.12,-27.7818,48.2399,55.5636)" text="" font-familyName="" font-pixelSize="20" font-bold="0" font-underline="0" font-alignment="1" strokeStyle="0" markerStart="0" markerEnd="0" shadowEnabled="0" shadowOffsetX="0" shadowOffsetY="2" shadowBlur="4" shadowOpacity="160" blurEnabled="0" blurRadius="4" transform="matrix(1.47139,0,0,1.47139,83.7811,90.7584)" pers-center="0,0" pers-size="0,0" pers-start="0,0" pers-end="0,0" locked="0" mesh="" flag=""/>
            <path id="shapePath2" d="M113.636,123.17 L117.814,123.17 C118.307,123.223 118.787,122.99 119.05,122.57 C119.313,122.15 119.313,121.616 119.05,121.196 C118.787,120.776 118.307,120.543 117.814,120.596 L113.577,120.596 C113.474,120.608 113.371,120.577 113.293,120.51 C113.215,120.442 113.168,120.346 113.165,120.242 C113.165,119.889 113.165,119.389 113.165,119.271 C113.165,119.154 113.165,118.889 112.768,118.889 L100.614,119.345 C99.7116,119.241 98.8075,119.524 98.1259,120.124 C97.4443,120.724 97.0491,121.585 97.0384,122.494 L97.0384,123.082 C72.2308,119.698 53.0586,98.819 53.0586,73.8054 C53.0527,67.4704 54.2926,61.196 56.7077,55.3394 C55.6924,53.4708 54.7949,51.6463 53.9709,49.8806 C50.2272,57.2996 48.2816,65.4953 48.2913,73.8054 C48.2913,101.423 69.5529,124.303 96.9796,127.732 L96.9796,128.026 C97.0326,128.92 97.4395,129.757 98.1104,130.35 C98.7813,130.944 99.661,131.246 100.555,131.19 L112.709,131.631 C112.817,131.65 112.929,131.617 113.01,131.542 C113.09,131.467 113.132,131.358 113.121,131.248 C113.121,130.969 113.121,130.601 113.121,130.469 C113.121,130.336 113.268,130.13 113.489,130.13 L117.8,130.13 C118.167,130.154 118.528,130.031 118.804,129.788 C119.08,129.545 119.248,129.202 119.271,128.835 C119.253,128.468 119.085,128.124 118.808,127.882 C118.53,127.641 118.166,127.523 117.8,127.555 L113.562,127.555 C113.268,127.555 113.121,127.423 113.121,127.217 C113.121,126.305 113.121,123.906 113.121,123.656 C113.117,123.522 113.168,123.392 113.263,123.298 C113.357,123.203 113.487,123.152 113.621,123.156 " style="stroke:none;fill-rule:evenodd;fill:#b6e11a;fill-opacity:1;"/>
        </g>
        <g id="Shape3">
            <desc shapeID="3" type="0" basicInfo-basicType="0" basicInfo-roundedRectRadius="12" basicInfo-polygonSides="6" basicInfo-starPoints="5" bounding="rect(-32.2349,-15.5001,64.4697,31.0001)" text="" font-familyName="" font-pixelSize="20" font-bold="0" font-underline="0" font-alignment="1" strokeStyle="0" markerStart="0" markerEnd="0" shadowEnabled="0" shadowOffsetX="0" shadowOffsetY="2" shadowBlur="4" shadowOpacity="160" blurEnabled="0" blurRadius="4" transform="matrix(1.47139,0,0,1.47139,110.038,42.1705)" pers-center="0,0" pers-size="0,0" pers-start="0,0" pers-end="0,0" locked="0" mesh="" flag=""/>
            <path id="shapePath3" d="M104.086,19.364 C88.3422,19.3234 73.3001,25.876 62.6079,37.4327 C63.9951,37.591 65.3906,37.6647 66.7867,37.6534 L69.0821,37.6534 C78.6164,28.8613 91.117,23.9903 104.086,24.0136 C128.938,24.0136 151.715,41.0964 155.997,64.9771 L157.468,64.6828 C152.76,38.5804 131.263,19.364 104.086,19.364 Z" style="stroke:none;fill-rule:evenodd;fill:#b6e11a;fill-opacity:1;"/>
        </g>
        <g id="Shape4">
            <desc shapeID="4" type="0" basicInfo-basicType="0" basicInfo-roundedRectRadius="12" basicInfo-polygonSides="6" basicInfo-starPoints="5" bounding="rect(-16.8152,-23.2655,33.6305,46.531)" text="" font-familyName="" font-pixelSize="20" font-bold="0" font-underline="0" font-alignment="1" strokeStyle="0" markerStart="0" markerEnd="0" shadowEnabled="0" shadowOffsetX="0" shadowOffsetY="2" shadowBlur="4" shadowOpacity="160" blurEnabled="0" blurRadius="4" transform="matrix(1.47139,0,0,1.47139,145.513,97.3961)" pers-center="0,0" pers-size="0,0" pers-start="0,0" pers-end="0,0" locked="0" mesh="" flag=""/>
            <path id="shapePath4" d="M150.685,100.555 C152.113,99.8631 153.365,98.8571 154.349,97.6124 C155.332,96.3313 156.07,94.8798 156.527,93.3307 C157.014,91.693 157.257,89.9924 157.248,88.2838 C157.255,86.3702 157.058,84.4612 156.659,82.5896 C156.313,80.9006 155.66,79.2897 154.732,77.837 C153.831,76.4594 152.602,75.327 151.156,74.5411 C149.421,73.6671 147.492,73.247 145.55,73.3198 C142.203,73.1992 139.021,74.7764 137.09,77.5133 C136.135,78.8402 135.446,80.3391 135.059,81.9274 C134.652,83.6036 134.449,85.3229 134.456,87.0479 C134.457,88.8024 134.634,90.5523 134.986,92.2713 C135.314,93.9238 135.937,95.5038 136.825,96.9356 C137.692,98.3126 138.865,99.4708 140.253,100.32 C141.864,101.252 143.705,101.711 145.565,101.644 C147.338,101.683 149.094,101.294 150.685,100.511 M169.475,116.696 C168.919,119.324 167.727,121.774 166.002,123.833 C163.851,126.248 161.173,128.136 158.175,129.35 C153.803,131.02 149.138,131.786 144.461,131.602 C141.939,131.593 139.425,131.291 136.972,130.704 C134.521,130.145 132.173,129.207 130.012,127.923 C127.947,126.686 126.17,125.02 124.804,123.038 C123.375,120.932 122.555,118.473 122.435,115.931 L136.06,115.931 C136.488,118.141 137.865,120.051 139.826,121.155 C141.832,122.166 144.055,122.671 146.301,122.626 C150.165,122.626 152.981,121.498 154.746,119.242 C156.582,116.746 157.473,113.681 157.262,110.59 L157.262,104.248 L157.071,104.248 C155.632,106.779 153.412,108.777 150.744,109.943 C148.03,111.166 145.084,111.793 142.107,111.782 C138.785,111.864 135.487,111.2 132.455,109.84 C129.847,108.637 127.563,106.831 125.789,104.572 C124.006,102.251 122.71,99.5933 121.978,96.759 C121.16,93.6725 120.754,90.4911 120.772,87.298 C120.786,84.2088 121.282,81.1408 122.243,78.2048 C123.093,75.3963 124.46,72.7714 126.275,70.4653 C128.093,68.2225 130.384,66.4087 132.984,65.1536 C135.865,63.7865 139.023,63.1065 142.21,63.1672 C145.184,63.1114 148.132,63.7302 150.832,64.977 C153.778,66.4135 156.276,68.6265 158.057,71.3776 C157.862,69.3503 158.624,67.348 160.117,65.9629 C162.721,63.9618 164.958,66.1542 170.255,64.4915 L170.255,110.105 C170.218,112.359 169.942,114.603 169.431,116.799 " style="stroke:none;fill-rule:evenodd;fill:#313131;fill-opacity:1;"/>
        </g>
        <g id="Shape5">
            <desc shapeID="5" type="0" basicInfo-basicType="0" basicInfo-roundedRectRadius="12" basicInfo-polygonSides="6" basicInfo-starPoints="5" bounding="rect(-10.9101,-16.9798,21.8202,33.9597)" text="" font-familyName="" font-pixelSize="20" font-bold="0" font-underline="0" font-alignment="1" strokeStyle="0" markerStart="0" markerEnd="0" shadowEnabled="0" shadowOffsetX="0" shadowOffsetY="2" shadowBlur="4" shadowOpacity="160" blurEnabled="0" blurRadius="4" transform="matrix(1.47139,0,0,1.47139,190.972,88.2099)" pers-center="0,0" pers-size="0,0" pers-start="0,0" pers-end="0,0" locked="0" mesh="" flag=""/>
            <path id="shapePath5" d="M185.793,66.5661 C187.411,69.1264 187.161,74.5411 187.161,74.5411 C188.157,72.6896 189.367,70.9612 190.766,69.3912 C191.849,68.1096 193.119,66.9985 194.533,66.0953 C195.94,65.1866 197.465,64.4738 199.065,63.9765 C200.689,63.4741 202.381,63.2211 204.082,63.2261 C205.08,63.2493 206.07,63.4076 207.025,63.6969 L207.025,76.1302 C206.377,76.0125 205.553,75.8947 204.715,75.8065 C203.849,75.7174 202.98,75.6732 202.11,75.674 C199.923,75.6099 197.748,76.0268 195.739,76.8953 C194.09,77.6496 192.65,78.7963 191.546,80.2353 C190.457,81.7088 189.685,83.3922 189.28,85.1792 C188.811,87.1903 188.584,89.2501 188.603,91.3149 L188.603,113.194 L174.919,113.194 L174.919,64.4915 C178.583,66.2866 183.953,63.6528 185.778,66.5661 " style="stroke:none;fill-rule:evenodd;fill:#313131;fill-opacity:1;"/>
        </g>
        <g id="Shape6">
            <desc shapeID="6" type="0" basicInfo-basicType="0" basicInfo-roundedRectRadius="12" basicInfo-polygonSides="6" basicInfo-starPoints="5" bounding="rect(-16.9425,-17.4062,33.8851,34.8125)" text="" font-familyName="" font-pixelSize="20" font-bold="0" font-underline="0" font-alignment="1" strokeStyle="0" markerStart="0" markerEnd="0" shadowEnabled="0" shadowOffsetX="0" shadowOffsetY="2" shadowBlur="4" shadowOpacity="160" blurEnabled="0" blurRadius="4" transform="matrix(1.47139,0,0,1.47139,231.393,88.8308)" pers-center="0,0" pers-size="0,0" pers-start="0,0" pers-end="0,0" locked="0" mesh="" flag=""/>
            <path id="shapePath6" d="M239.013,75.88 C237,73.9849 234.28,73.0283 231.523,73.2462 C229.644,73.1815 227.775,73.5542 226.064,74.3351 C224.73,74.9716 223.547,75.8844 222.592,77.013 C221.761,78.014 221.136,79.169 220.753,80.4119 C220.438,81.4572 220.231,82.532 220.135,83.6195 L242.515,83.6195 C242.119,80.774 240.931,78.0972 239.086,75.8947 M223.504,101.512 C228.166,105.056 234.514,105.412 239.542,102.409 C241.22,101.446 242.514,99.9339 243.206,98.1274 L255.286,98.1274 C253.324,104.013 250.382,108.192 246.458,110.664 C242.086,113.277 237.056,114.584 231.965,114.43 C228.34,114.481 224.738,113.857 221.341,112.591 C218.32,111.455 215.583,109.673 213.322,107.368 C211.093,105.041 209.365,102.282 208.246,99.2604 C207.031,95.9639 206.428,92.4736 206.466,88.9607 C206.435,85.4813 207.058,82.0273 208.305,78.7787 C209.461,75.7316 211.234,72.9563 213.514,70.6272 C215.814,68.3 218.555,66.4543 221.577,65.1977 C224.872,63.8513 228.405,63.1808 231.965,63.2261 C235.805,63.1365 239.612,63.9584 243.074,65.6245 C246.131,67.1492 248.795,69.3598 250.857,72.0838 C252.919,74.8401 254.419,77.9747 255.272,81.3094 C256.179,84.8429 256.502,88.5011 256.228,92.1389 L220.12,92.1389 C220.311,96.4648 221.444,99.6135 223.504,101.556 " style="stroke:none;fill-rule:evenodd;fill:#313131;fill-opacity:1;"/>
        </g>
        <g id="Shape7">
            <desc shapeID="7" type="0" basicInfo-basicType="0" basicInfo-roundedRectRadius="12" basicInfo-polygonSides="6" basicInfo-starPoints="5" bounding="rect(-15.9654,-17.0088,31.9307,34.0177)" text="" font-familyName="" font-pixelSize="20" font-bold="0" font-underline="0" font-alignment="1" strokeStyle="0" markerStart="0" markerEnd="0" shadowEnabled="0" shadowOffsetX="0" shadowOffsetY="2" shadowBlur="4" shadowOpacity="160" blurEnabled="0" blurRadius="4" transform="matrix(1.47139,0,0,1.47139,283.059,88.1674)" pers-center="0,0" pers-size="0,0" pers-start="0,0" pers-end="0,0" locked="0" mesh="" flag=""/>
            <path id="shapePath7" d="M305.784,74.9972 C305.294,72.6929 304.288,70.5296 302.841,68.6702 C301.371,66.8612 299.454,65.4666 297.28,64.6239 C294.391,63.5555 291.323,63.0559 288.245,63.1525 C285.303,63.1576 282.398,63.816 279.741,65.08 C276.898,66.2775 274.378,68.1274 272.384,70.48 C272.13,70.6374 271.93,70.8683 271.81,71.1422 C271.856,69.5005 271.376,67.8869 270.441,66.5367 C268.602,63.5939 263.246,66.2424 259.568,64.4621 L259.568,113.165 L273.414,113.165 L273.414,87.6658 C273.414,82.7024 274.252,79.1367 275.93,76.9689 C277.607,74.801 280.31,73.7171 284.037,73.7171 C287.323,73.7171 289.609,74.698 290.894,76.6599 C292.179,78.6217 292.821,81.6233 292.821,85.6648 L292.821,113.194 L306.549,113.194 L306.549,83.237 C306.573,80.4687 306.296,77.706 305.725,74.9972 " style="stroke:none;fill-rule:evenodd;fill:#313131;fill-opacity:1;"/>
        </g>
        <g id="Shape8">
            <desc shapeID="8" type="0" basicInfo-basicType="0" basicInfo-roundedRectRadius="12" basicInfo-polygonSides="6" basicInfo-starPoints="5" bounding="rect(-16.9125,-17.4262,33.825,34.8523)" text="" font-familyName="" font-pixelSize="20" font-bold="0" font-underline="0" font-alignment="1" strokeStyle="0" markerStart="0" markerEnd="0" shadowEnabled="0" shadowOffsetX="0" shadowOffsetY="2" shadowBlur="4" shadowOpacity="160" blurEnabled="0" blurRadius="4" transform="matrix(1.47139,0,0,1.47139,334.77,88.8015)" pers-center="0,0" pers-size="0,0" pers-start="0,0" pers-end="0,0" locked="0" mesh="" flag=""/>
            <path id="shapePath8" d="M342.437,75.88 C340.423,73.9849 337.703,73.0283 334.947,73.2462 C333.068,73.1814 331.199,73.5542 329.488,74.3351 C328.154,74.972 326.971,75.8847 326.016,77.013 C325.181,78.0111 324.555,79.167 324.177,80.4119 C323.847,81.4543 323.635,82.5301 323.544,83.6195 L345.85,83.6195 C345.455,80.7738 344.267,78.0968 342.422,75.8947 M326.928,101.512 C331.59,105.056 337.938,105.412 342.966,102.409 C344.644,101.446 345.938,99.9339 346.63,98.1274 L358.754,98.1274 C356.792,104.013 353.85,108.192 349.926,110.664 C345.554,113.277 340.524,114.584 335.433,114.43 C331.808,114.481 328.206,113.857 324.809,112.591 C321.788,111.455 319.051,109.672 316.79,107.368 C314.544,105.041 312.801,102.276 311.67,99.2457 C310.456,95.9491 309.852,92.4588 309.889,88.9459 C309.832,85.4506 310.436,81.9758 311.67,78.7051 C312.833,75.6583 314.611,72.8835 316.893,70.5536 C319.18,68.2344 321.906,66.3938 324.912,65.1389 C328.208,63.794 331.741,63.1236 335.3,63.1672 C339.141,63.0793 342.947,63.9011 346.409,65.5656 C349.461,67.0931 352.119,69.3034 354.178,72.025 C356.245,74.7782 357.745,77.9139 358.592,81.2506 C359.505,84.7832 359.833,88.4414 359.564,92.08 L323.559,92.08 C323.755,96.4059 324.883,99.5448 326.943,101.497 " style="stroke:none;fill-rule:evenodd;fill:#313131;fill-opacity:1;"/>
        </g>
        <g id="Shape9">
            <desc shapeID="9" type="0" basicInfo-basicType="0" basicInfo-roundedRectRadius="12" basicInfo-polygonSides="6" basicInfo-starPoints="5" bounding="rect(-14.5949,-24.095,29.1897,48.19)" text="" font-familyName="" font-pixelSize="20" font-bold="0" font-underline="0" font-alignment="1" strokeStyle="0" markerStart="0" markerEnd="0" shadowEnabled="0" shadowOffsetX="0" shadowOffsetY="2" shadowBlur="4" shadowOpacity="160" blurEnabled="0" blurRadius="4" transform="matrix(1.47139,0,0,1.47139,118.616,76.3288)" pers-center="0,0" pers-size="0,0" pers-start="0,0" pers-end="0,0" locked="0" mesh="" flag=""/>
            <path id="shapePath9" d="M105.381,68.8909 C105.381,68.8909 116.946,46.0991 121.081,43.3771 C127.055,39.4632 132.543,42.9062 140.091,40.8757 C139.297,42.0234 113.106,84.5759 113.106,84.5759 L113.106,111.782 L97.1415,111.782 L97.1415,84.1787 L105.381,68.8909 Z" style="stroke:none;fill-rule:evenodd;fill:#313131;fill-opacity:1;"/>
        </g>
    </g>
</svg>
