<?xml version="1.0" encoding="utf-8"?>
<!-- Svg Vector Icons : http://www.onlinewebfonts.com/icon -->
<!DOCTYPE svg PUBLIC "-//W3C//DTD SVG 1.1//EN" "http://www.w3.org/Graphics/SVG/1.1/DTD/svg11.dtd">
<svg version="1.1" xmlns="http://www.w3.org/2000/svg" xmlns:xlink="http://www.w3.org/1999/xlink" x="0px" y="0px" viewBox="0 0 1000 1000" enable-background="new 0 0 1000 1000" xml:space="preserve">
<metadata> Svg Vector Icons : http://www.onlinewebfonts.com/icon </metadata>
<g><path d="M10,182.7c41,14.5,81.6,30.4,123.2,43c23.4,7.1,46.5,0.7,67.6-13.4c42.9-28.7,87.1-54.7,135-73c41.1-15.7,80.1-11.8,116.7,14.2c4.6,3.3,8.5,7.7,13.6,12.3c-20.7,12.1-40.3,23.2-59.5,35.1c-23.1,14.3-46.2,28.6-68.7,44c-41,28.2-57,76.9-41.2,123.2c14.7,43.2,59.1,74.4,98.2,67.7c13-2.3,26-7,38.1-12.6c31.3-14.4,62-29.8,93-44.8c30-14.5,53.8-9.8,77.4,15c60.3,63.6,120.5,127.3,180.8,190.9c18.2,19.2,19.3,47.7,2.3,66.2c-17.3,18.7-44.2,17.8-63.2-2.1c-19.5-20.5-38.9-40.9-58.8-61c-4-4-8.2-12.9-15.2-6.2c-1.5,1.5,2.2,11.6,5.7,15.6c18.2,21.2,37.1,41.8,55.9,62.5c22.5,24.7,17.8,61.7-9.7,75.8c-17.5,8.9-37,4.1-52.2-12c-23.9-25.3-48.1-50.3-72.4-75.2c-3.1-3.2-7.4-5.2-12.3-8.7c-2.1,11.5,3.9,16.9,8.4,22.2c18,20.6,36.3,40.8,54.6,61c8.2,9.1,13.9,19.1,14.2,32.1c0.5,19.5-9.2,36-25.7,43.5c-16.8,7.6-35.1,3.2-48.2-11c-20.7-22.4-41.6-44.7-62.5-67c-3.4-3.6-6.9-7.1-10.9-9.7c-2.2-1.5-5.5-1-8.3-1.4c0,3.1-0.8,6.6,0.3,9.1c1.8,3.8,4.7,7.2,7.6,10.4c16.2,18.1,33,35.7,48.9,54.1c14,16.1,14.8,39.8,3,56.8c-14.6,21.1-42.9,24.9-61.6,7.7c-8.4-7.7-15.8-16.6-23.3-25.4c-1.5-1.8-1.7-5.5-1.5-8.2c4.5-49.5-19.2-90.9-62.2-109.5c-3.5-1.5-7-5.7-8.2-9.5c-10.1-30.4-28.6-52-56.8-64.5c-3.4-1.6-6.9-5.7-8.3-9.4c-10.3-28.3-28.3-48.3-54.8-60c-3.5-1.6-7.3-5.5-8.6-9.3c-18.2-53.7-69.1-77-120.4-64.1c-36,9-61,32.2-75.2,68.3c-0.4,0.9-0.8,1.8-1.3,2.7c-0.3,0.5-0.8,1-1.7,2.1C44.8,553.9,27.4,547.5,10,541C10,421.6,10,302.1,10,182.7L10,182.7z M990,530.9c-34.2,6.6-68.2,14-102.5,19.3c-24.1,3.8-44.9-4.9-62.5-23.4C759.1,457.7,692.9,389,627,319.8c-20.1-21-43.6-26-68.4-13.9c-37.8,18.6-74.5,39.6-111.7,59.6c-11.3,6.1-22.5,12.6-33.9,18.6c-27.6,14.7-60.1,3.7-74.6-25.1c-14.2-28.1-4.6-63,21.9-78.9c77.7-46.4,155.4-92.6,233.1-138.9c0.3-0.2,0.5-0.3,0.8-0.5c33.2-22.9,64.3-18.5,93.8,7.9c33.1,29.7,66.3,59.2,99.3,88.9c16.2,14.6,34.5,19.3,55.1,14.6c46.4-10.7,92.7-21.5,139.1-32.1c2.8-0.6,5.7-0.7,8.5-1C990,323,990,427,990,530.9L990,530.9z M301.3,789.8c-9.7,2.7-17.9,5.6-26.2,7.2c-13.4,2.6-26.9,3-38.1-7.3c-12.5-11.4-17.1-25.6-11.9-42.7c2.5-8.2,5.1-16.4,8.2-26c-10,2.7-18.4,5.3-27,7.1c-30.8,6.7-54.3-21.4-44.4-52.8c2.3-7.3,4.8-14.6,7.9-23.8c-6.1,1.6-10.9,2.5-15.4,4.2c-43.6,16.2-65.5-22.2-58.2-56.1c7.2-33.5,33.6-62.6,63.7-67.2c35.1-5.3,63.6,25.2,58,62c-0.4,2.6-0.8,5.2-1.5,9.4c19.4-2.9,37.5-1.3,51.8,13.8c14.6,15.4,15.4,34.5,12.1,55.5c20.7-2.1,39.8-0.5,53.9,17.1c13.9,17.4,14.3,37.2,8.4,58.6c7.6-0.8,14.2-2.2,20.7-2c34.8,1,57.3,34.3,48.1,70.8c-9.8,38.9-61.8,67-97.2,52.4c-20.6-8.4-30.3-29.1-23.6-51.6C293.4,809.4,297.3,800.6,301.3,789.8L301.3,789.8z"/></g>
</svg>