<?xml version="1.0" encoding="utf-8"?>
<!-- Svg Vector Icons : http://www.onlinewebfonts.com/icon -->
<!DOCTYPE svg PUBLIC "-//W3C//DTD SVG 1.1//EN" "http://www.w3.org/Graphics/SVG/1.1/DTD/svg11.dtd">
<svg version="1.1" xmlns="http://www.w3.org/2000/svg" xmlns:xlink="http://www.w3.org/1999/xlink" x="0px" y="0px" viewBox="0 0 1000 1000" enable-background="new 0 0 1000 1000" xml:space="preserve">
<metadata> Svg Vector Icons : http://www.onlinewebfonts.com/icon </metadata>
<g><g transform="translate(0.000000,511.000000) scale(0.100000,-0.100000)"><path d="M2531.6,3021.3C1198.5,2080.9,105.5,1300.5,100.5,1290.5c-12.5-40,200.1-307.6,235.1-295.1c20,7.5,1055.5,735.3,2301,1615.7c1245.6,882.9,2281,1610.7,2301,1618.2c17.5,7.5,552.8-350.2,1210.6-807.9c645.3-452.7,1185.6-825.4,1200.5-830.4c17.5-7.5,25,177.6,25,530.2v540.3h312.6h312.6v-760.3v-757.9l815.4-555.2c447.7-305.1,830.4-562.8,847.9-567.8c20-7.5,72.5,45,135.1,137.6C9855,1240.5,9900,1313,9900,1318c0,5-337.7,240.1-750.3,520.2l-750.3,510.2v857.9v855.4h-712.8h-710.3l-7.5-362.7l-7.5-365.2l-775.4,542.8c-425.2,297.6-877.9,612.8-1003,700.3l-227.6,160.1L2531.6,3021.3z"/><path d="M1476.2,692.8c-252.6-695.3-257.6-1335.6-15-2008.4c347.7-973,1210.6-1725.8,2186-1910.9c212.6-40,862.9-55,882.9-20c7.5,10-5,112.5-25,230.1c-85,515.2-35,1063,152.6,1658.3l85,270.1l-157.6,192.6c-215.1,265.1-590.3,620.3-805.4,762.9c-240.1,160.1-555.2,315.1-975.4,477.7c-477.7,185.1-732.8,302.6-985.4,442.7c-120,67.5-227.6,122.5-240.1,122.5S1521.2,812.8,1476.2,692.8z M1991.4,232.6C2083.9,190,2344,82.5,2569.1-5c515.2-202.6,857.9-377.7,1105.5-565.3c220.1-165.1,597.8-557.8,597.8-617.8c0-22.5-27.5-125.1-60-227.6c-32.5-102.5-75-257.6-90-342.7l-30-155.1l-120.1,60c-520.2,262.6-1108,800.4-1450.7,1325.6c-230.1,352.7-240.1,362.7-350.2,362.7c-112.5,0-200.1-87.5-200.1-200.1c0-125.1,360.2-647.8,687.8-998c282.6-305.1,842.9-720.3,1220.6-905.4l167.6-82.6v-165.1c0-90,7.5-205.1,15-257.6l17.5-92.5l-147.6,15c-842.9,85.1-1603.2,640.3-1988.4,1448.2c-185.1,385.2-232.6,600.3-232.6,1050.5c-2.5,367.7,37.5,662.8,87.5,662.8C1811.3,310.1,1898.8,275.1,1991.4,232.6z"/><path d="M7088.7,720.3c-962.9-215.1-1860.8-1108-2228.5-2221c-197.6-595.3-215.1-1140.5-57.5-1685.8l52.5-180.1l177.6-57.5c222.6-70,617.8-72.5,865.4-7.5c237.6,62.5,682.8,287.6,927.9,467.7c277.6,205.1,670.3,605.3,880.4,897.9c187.6,265.1,495.2,862.9,627.8,1225.6c135,370.2,342.6,1053,347.6,1150.5c5,85,2.5,87.5-257.6,217.6c-145.1,72.5-330.2,150.1-412.7,172.6C7796.5,757.8,7303.8,767.8,7088.7,720.3z M7861.6,307.6c145.1-35,362.7-125.1,362.7-150.1c0-10-62.5-215.1-140-452.7c-222.6-682.8-435.2-1143-697.8-1508.2c-440.2-612.8-1055.5-1088-1588.2-1225.5c-150.1-40-350.2-50-350.2-20c0,10,77.5,175.1,172.6,367.7c355.2,725.3,732.9,1173,1215.6,1443.1c82.5,45,162.6,100,180.1,122.6c47.5,60,37.5,195.1-17.5,250.1c-115,115-227.6,87.5-562.8-137.6c-415.2-275.1-830.4-790.4-1153-1428.1l-157.6-310.1l-17.5,112.5c-60,405.2,132.6,1135.5,430.2,1638.2C6105.8-32.6,7056.2,497.7,7861.6,307.6z"/><path d="M195.6-4317v-200.1h4802.2H9800v200.1v200.1H4997.8H195.6V-4317z"/></g></g>
</svg>