<?xml version="1.0" encoding="utf-8"?>
<!-- Svg Vector Icons : http://www.onlinewebfonts.com/icon -->
<!DOCTYPE svg PUBLIC "-//W3C//DTD SVG 1.1//EN" "http://www.w3.org/Graphics/SVG/1.1/DTD/svg11.dtd">
<svg version="1.1" xmlns="http://www.w3.org/2000/svg" xmlns:xlink="http://www.w3.org/1999/xlink" x="0px" y="0px" viewBox="0 0 1000 1000" enable-background="new 0 0 1000 1000" xml:space="preserve">
<metadata> Svg Vector Icons : http://www.onlinewebfonts.com/icon </metadata>
<g><g><g><polygon points="574.6,322 574.6,421.4 743.4,421.4 715.2,322 "/><polygon points="575.3,553 772.3,553 744.1,453.6 575.3,453.6 "/><path d="M740.1,259.5H126.7c-17.8,0-32.3,11.7-32.3,26L10,722.1c0,14.3,14.5,26,32.3,26h48.9h42.3h602.9h39.5h71c17.8,0,32.3-11.7,32.3-26L772.3,285.5C772.3,271.2,757.8,259.5,740.1,259.5z M48.7,716.9l84.4-426.2h600.5l106.9,426.2H48.7z"/><polygon points="313.9,322 162,322 133.8,421.4 313.9,421.4 "/><rect x="355" y="322" width="180" height="99.3"/><polygon points="106.4,553 314.6,553 314.6,453.6 134.6,453.6 "/><rect x="355.7" y="453.6" width="180.1" height="99.3"/><polygon points="83.9,685.6 314.6,685.6 314.6,586.2 112.1,586.2 "/><rect x="355.7" y="586.2" width="180.1" height="99.4"/><polygon points="575.3,586.2 575.3,685.6 800.4,685.6 772.3,586.2 "/><polygon points="477.3,771.3 406.1,771.3 406.1,912.7 322.5,912.7 322.5,960.8 563,960.8 563,912.7 477.3,912.7 "/><path d="M759.9,238.6c17.7,0,32.2,11.7,32.2,26l30.1,122.8c29.4-24.4,48.5-60.8,48.5-102c0-73.6-59.6-133.2-133.2-133.2c-57.1,0-105.4,36.1-124.3,86.5L759.9,238.6L759.9,238.6L759.9,238.6z"/><path d="M988,282.3l-73.1-19.6c-0.9-0.3-2-0.1-2.7,0.5c-0.8,0.6-1.2,1.5-1.2,2.5v39.3c0,1,0.4,1.9,1.2,2.5c0.8,0.6,1.8,0.8,2.7,0.5l73.1-19.6C990.7,287.5,990.7,283,988,282.3z"/><path d="M717.8,118.2h39.4c1,0,1.9-0.4,2.5-1.2c0.6-0.8,0.8-1.8,0.6-2.7l-19.7-73.1c-0.7-2.7-5.3-2.7-6,0l-19.7,73.1c-0.3,0.9-0.1,1.9,0.5,2.7C716,117.8,716.9,118.2,717.8,118.2z"/><path d="M869.5,181.1c0.7,0.7,1.6,1,2.6,0.9c0.9-0.1,1.8-0.7,2.3-1.5l37.7-65.6c1.4-2.4-1.8-5.6-4.3-4.2l-65.5,37.8c-0.8,0.4-1.4,1.3-1.5,2.3c-0.1,1,0.2,1.9,0.9,2.6L869.5,181.1z"/><path d="M859.3,390.1c-0.5-0.8-1.3-1.4-2.2-1.5c-1-0.2-1.9,0.2-2.6,0.9L829,415l2.3,9.5l61.6,35.5c2.4,1.4,5.7-1.8,4.3-4.2L859.3,390.1z"/><path d="M587.9,182c0.9,0.1,1.8-0.3,2.5-1l27.8-27.8c0.6-0.7,1-1.6,0.9-2.6c0-0.9-0.6-1.7-1.3-2.1l-60.7-32.9c-2.2-1.2-5.5,2-4.2,4.2l32.9,60.7C586.2,181.5,587,181.9,587.9,182z"/></g></g><g></g><g></g><g></g><g></g><g></g><g></g><g></g><g></g><g></g><g></g><g></g><g></g><g></g><g></g><g></g></g>
</svg>